<svg xmlns="http://www.w3.org/2000/svg" viewBox="3081.207 2191 15.769 13.04"><defs><style>.cls-1{fill:#e00000}</style></defs><g id="alert_icon" data-name="alert icon" transform="translate(3081.207 2191)"><path id="Path_15" data-name="Path 15" class="cls-1" d="M15.567 11.725L8.714.553a.9.9 0 0 0-1.658.01L.2 11.72c-.456.745-.115 1.32.757 1.32H14.81c.873 0 1.213-.571.757-1.315zm-7.688-8.7c.439 0 .778.485.756 1.077L8.5 7.674c-.022.592-.3 1.077-.619 1.077s-.6-.485-.619-1.077L7.121 4.1c-.021-.589.318-1.074.758-1.074zm0 8.414a.894.894 0 0 1-.922-.958.928.928 0 1 1 1.855 0 .9.9 0 0 1-.933.959z"/></g></svg>