<svg xmlns="http://www.w3.org/2000/svg" viewBox="8489.399 1837.277 54.827 55.523">
  <defs>
    <style>
      .cls-1 {
        fill: #e4e4e4;
      }
    </style>
  </defs>
  <g id="plus" transform="translate(7211.253 1614.1)">
    <path id="Path_162" data-name="Path 162" class="cls-1" d="M400.482,112.8A2.358,2.358,0,0,1,398,110.516V87.284a2.491,2.491,0,0,1,4.964,0v23.133a2.376,2.376,0,0,1-2.482,2.383" transform="translate(905.914 152)"/>
    <path id="Path_163" data-name="Path 163" class="cls-1" d="M411.517,101.964H388.384a2.491,2.491,0,0,1,0-4.964h23.133a2.491,2.491,0,0,1,0,4.964" transform="translate(905.999 151.915)"/>
    <path id="Path_164" data-name="Path 164" class="cls-1" d="M399.3,126.6a26.819,26.819,0,0,1-19.261-8.141A28.375,28.375,0,0,1,372.4,94.134a27.164,27.164,0,0,1,47.954-13.006,2.344,2.344,0,0,1-.3,3.276,2.225,2.225,0,0,1-3.177-.3,22.563,22.563,0,0,0-39.913,10.822,23.526,23.526,0,0,0,6.354,20.353,22.256,22.256,0,0,0,19.956,6.454c9.73-1.589,17.673-10.127,18.765-20.155a22.574,22.574,0,0,0-.2-6.851c-.2-.894-.4-1.787-.6-2.581a2.292,2.292,0,1,1,4.368-1.39c.3.993.6,2.085.794,3.078a28.569,28.569,0,0,1,.3,8.241A27.415,27.415,0,0,1,404.169,126.3a43.926,43.926,0,0,1-4.865.3" transform="translate(906.1 152.1)"/>
  </g>
</svg>
